<svg height="384pt" viewBox="0 0 384 384" width="384pt" xmlns="http://www.w3.org/2000/svg"><path d="m240 312c8.832031 0 16-7.167969 16-16v-160c0-35.289062-28.710938-64-64-64s-64 28.710938-64 64v65.375l-12.6875-12.6875c-6.25-6.246094-16.375-6.246094-22.625 0-6.246094 6.25-6.246094 16.375 0 22.625l40 40c.234375.230469.511719.398438.761719.617188.277343.246093.558593.46875.863281.703124 1.085938.839844 2.230469 1.558594 3.457031 2.078126.039063.015624.070313.050781.109375.074218.007813.007813.023438 0 .03125.007813 1.328125.542969 2.714844.847656 4.113282 1.023437.3125.039063.625.070313.9375.085938.34375.019531.6875.097656 1.039062.097656 1.039062 0 2.089844-.105469 3.113281-.3125.015625 0 .023438-.007812.039063-.015625 1.335937-.265625 2.617187-.761719 3.855468-1.375.296876-.144531.585938-.296875.871094-.464844 1.21875-.695312 2.386719-1.496093 3.425782-2.535156l40-40c6.246093-6.25 6.246093-16.375 0-22.625-6.25-6.246094-16.375-6.246094-22.625 0l-12.679688 12.703125v-65.375c0-17.648438 14.351562-32 32-32s32 14.351562 32 32v160c0 8.832031 7.167969 16 16 16zm0 0"/><path d="m192 0c-105.863281 0-192 86.128906-192 192 0 38.792969 11.472656 76.128906 33.175781 107.96875 4.976563 7.304688 14.921875 9.207031 22.222657 4.207031 7.304687-4.976562 9.1875-14.929687 4.210937-22.222656-18.066406-26.511719-27.609375-57.617187-27.609375-89.953125 0-88.222656 71.777344-160 160-160s160 71.777344 160 160-71.777344 160-160 160c-28.167969 0-55.832031-7.390625-79.984375-21.367188-7.648437-4.433593-17.441406-1.824218-21.855469 5.832032-4.433594 7.648437-1.824218 17.4375 5.832032 21.855468 29.007812 16.808594 62.207031 25.679688 96.007812 25.679688 105.863281 0 192-86.136719 192-192 0-105.871094-86.136719-192-192-192zm0 0"/></svg>